<svg width="32" height="32" viewBox="0 0 32 32" fill="none" xmlns="http://www.w3.org/2000/svg">
<circle cx="16" cy="16" r="16" fill="#454545"/>
<path d="M10.876 22.5676C10.432 22.231 10.3245 21.8909 10.5537 21.5471L11.3809 20.301C11.653 19.8928 12.0505 19.8713 12.5732 20.2366C12.9743 20.5159 13.4971 20.8059 14.1416 21.1067C14.7933 21.4003 15.4772 21.5471 16.1934 21.5471C16.6947 21.5471 17.1781 21.4898 17.6436 21.3752C18.109 21.2607 18.4635 21.0387 18.707 20.7092C18.9505 20.3798 19.0723 19.9895 19.0723 19.5383C19.0723 19.2161 19.0186 18.9332 18.9111 18.6897C18.8037 18.4462 18.6283 18.2457 18.3848 18.0881C18.1413 17.9306 17.8906 17.7981 17.6328 17.6907C17.1816 17.5045 16.6123 17.3219 15.9248 17.1428C15.2445 16.9566 14.5713 16.7346 13.9053 16.4768C13.3109 16.2476 12.7666 15.9325 12.2725 15.5315C11.7783 15.1305 11.3952 14.6793 11.123 14.178C10.8509 13.6767 10.7148 13.0071 10.7148 12.1692C10.7148 11.1737 11.0371 10.3215 11.6816 9.61255C12.3262 8.90356 13.0674 8.44881 13.9053 8.24829C14.7432 8.04777 15.5882 7.94751 16.4404 7.94751C17.2855 7.94751 18.1556 8.07642 19.0508 8.33423C19.9531 8.59204 20.6335 8.91431 21.0918 9.30103C21.543 9.68058 21.654 10.0243 21.4248 10.3323L20.5547 11.5032C20.2611 11.9042 19.8672 11.9364 19.373 11.5999C19.0579 11.385 18.6247 11.1451 18.0732 10.8801C17.529 10.6152 16.9596 10.4827 16.3652 10.4827C15.9427 10.4827 15.5524 10.5185 15.1943 10.5901C14.8434 10.6617 14.5319 10.8336 14.2598 11.1057C13.9876 11.3778 13.8516 11.7144 13.8516 12.1155C13.8516 12.5022 13.9518 12.8173 14.1523 13.0608C14.3529 13.2971 14.5749 13.4762 14.8184 13.5979C15.0618 13.7125 15.3089 13.8092 15.5596 13.8879C16.333 14.1386 17.0241 14.3606 17.6328 14.554C18.2415 14.7402 18.8037 14.9478 19.3193 15.177C20.0355 15.4993 20.5833 15.8215 20.9629 16.1438C21.3424 16.4661 21.654 16.9065 21.8975 17.4651C22.1481 18.0237 22.2734 18.6897 22.2734 19.4631C22.2734 20.609 21.9082 21.5579 21.1777 22.3098C20.4473 23.0546 19.6344 23.5344 18.7393 23.7493C17.8512 23.9713 16.9847 24.0823 16.1396 24.0823C14.8936 24.0823 13.8802 23.9605 13.0996 23.717C12.319 23.4807 11.5778 23.0976 10.876 22.5676Z" fill="white"/>
</svg>
