<svg width="110" height="25" viewBox="0 0 110 25" fill="none" xmlns="http://www.w3.org/2000/svg">
<rect width="110" height="25" rx="8" fill="#454545"/>
<path d="M7.73682 17.2163C7.43408 16.9868 7.36084 16.7549 7.51709 16.5205L8.08105 15.6709C8.2666 15.3926 8.5376 15.3779 8.89404 15.627C9.16748 15.8174 9.52393 16.0151 9.96338 16.2202C10.4077 16.4204 10.874 16.5205 11.3623 16.5205C11.7041 16.5205 12.0337 16.4814 12.3511 16.4033C12.6685 16.3252 12.9102 16.1738 13.0762 15.9492C13.2422 15.7246 13.3252 15.4585 13.3252 15.1509C13.3252 14.9312 13.2886 14.7383 13.2153 14.5723C13.1421 14.4062 13.0225 14.2695 12.8564 14.1621C12.6904 14.0547 12.5195 13.9644 12.3438 13.8911C12.0361 13.7642 11.6479 13.6396 11.1792 13.5176C10.7153 13.3906 10.2563 13.2393 9.80225 13.0635C9.39697 12.9072 9.02588 12.6924 8.68896 12.4189C8.35205 12.1455 8.09082 11.8379 7.90527 11.4961C7.71973 11.1543 7.62695 10.6978 7.62695 10.1265C7.62695 9.44775 7.84668 8.8667 8.28613 8.3833C8.72559 7.8999 9.23096 7.58984 9.80225 7.45312C10.3735 7.31641 10.9497 7.24805 11.5308 7.24805C12.1069 7.24805 12.7002 7.33594 13.3105 7.51172C13.9258 7.6875 14.3896 7.90723 14.7021 8.1709C15.0098 8.42969 15.0854 8.66406 14.9292 8.87402L14.3359 9.67236C14.1357 9.9458 13.8672 9.96777 13.5303 9.73828C13.3154 9.5918 13.02 9.42822 12.644 9.24756C12.2729 9.06689 11.8848 8.97656 11.4795 8.97656C11.1914 8.97656 10.9253 9.00098 10.6812 9.0498C10.4419 9.09863 10.2295 9.21582 10.0439 9.40137C9.8584 9.58691 9.76562 9.81641 9.76562 10.0898C9.76562 10.3535 9.83398 10.5684 9.9707 10.7344C10.1074 10.8955 10.2588 11.0176 10.4248 11.1006C10.5908 11.1787 10.7593 11.2446 10.9302 11.2983C11.4575 11.4692 11.9287 11.6206 12.3438 11.7524C12.7588 11.8794 13.1421 12.021 13.4937 12.1772C13.9819 12.397 14.3555 12.6167 14.6143 12.8364C14.873 13.0562 15.0854 13.3564 15.2515 13.7373C15.4224 14.1182 15.5078 14.5723 15.5078 15.0996C15.5078 15.8809 15.2588 16.5278 14.7607 17.0405C14.2627 17.5483 13.7085 17.8755 13.0981 18.022C12.4927 18.1733 11.9019 18.249 11.3257 18.249C10.4761 18.249 9.78516 18.166 9.25293 18C8.7207 17.8389 8.21533 17.5776 7.73682 17.2163ZM17.4561 18C17.1631 18 17.0166 17.8535 17.0166 17.5605V7.62891C17.0166 7.33594 17.1631 7.18945 17.4561 7.18945H18.6279C18.9209 7.18945 19.0674 7.33594 19.0674 7.62891V10.5879C19.0674 10.7832 19.0576 10.9785 19.0381 11.1738H19.082C19.3066 10.7881 19.5923 10.5244 19.939 10.3828C20.2856 10.2363 20.7031 10.1631 21.1914 10.1631C21.9531 10.1631 22.583 10.4023 23.0811 10.8809C23.5791 11.3594 23.8281 12.2334 23.8281 13.5029V17.5605C23.8281 17.8535 23.6816 18 23.3887 18H22.2168C21.9238 18 21.7773 17.8535 21.7773 17.5605V14.0303C21.7773 12.9658 21.7041 12.2944 21.5576 12.0161C21.4111 11.7378 21.0962 11.5986 20.6128 11.5986C20.1001 11.5986 19.7144 11.7988 19.4556 12.1992C19.1968 12.5947 19.0674 13.4199 19.0674 14.6748V17.5605C19.0674 17.8535 18.9209 18 18.6279 18H17.4561ZM25.3955 14.1548C25.3955 12.9097 25.7153 11.9331 26.355 11.2251C26.9995 10.5171 27.9565 10.1631 29.2261 10.1631C30.4956 10.1631 31.4502 10.5171 32.0898 11.2251C32.7344 11.9331 33.0566 12.9097 33.0566 14.1548C33.0566 15.3999 32.7344 16.3765 32.0898 17.0845C31.4502 17.7925 30.4956 18.1465 29.2261 18.1465C27.9565 18.1465 26.9995 17.7925 26.355 17.0845C25.7153 16.3765 25.3955 15.3999 25.3955 14.1548ZM27.5635 14.1548C27.5635 15.0825 27.7051 15.7417 27.9883 16.1323C28.2764 16.5181 28.689 16.7109 29.2261 16.7109C29.7632 16.7109 30.1733 16.5181 30.4565 16.1323C30.7446 15.7417 30.8887 15.0825 30.8887 14.1548C30.8887 13.2271 30.7446 12.5703 30.4565 12.1846C30.1733 11.7939 29.7632 11.5986 29.2261 11.5986C28.689 11.5986 28.2764 11.7939 27.9883 12.1846C27.7051 12.5703 27.5635 13.2271 27.5635 14.1548ZM35.0781 20.9297C34.7852 20.9297 34.6387 20.7832 34.6387 20.4902V10.749C34.6387 10.4561 34.7852 10.3096 35.0781 10.3096H36.2354C36.4795 10.3096 36.6113 10.4561 36.6309 10.749L36.6602 11.1738H36.6895C36.9434 10.7539 37.2266 10.4805 37.5391 10.3535C37.8516 10.2266 38.2275 10.1631 38.667 10.1631C39.8145 10.1631 40.6201 10.561 41.084 11.3569C41.5527 12.1479 41.7871 13.0806 41.7871 14.1548C41.7871 15.229 41.5527 16.1641 41.084 16.96C40.6201 17.751 39.8145 18.1465 38.667 18.1465C38.2275 18.1465 37.8516 18.083 37.5391 17.9561C37.2266 17.8291 36.9434 17.5557 36.6895 17.1357H36.6602C36.6797 17.3311 36.6895 17.5264 36.6895 17.7217V20.4902C36.6895 20.7832 36.543 20.9297 36.25 20.9297H35.0781ZM36.6895 14.4844C36.6895 15.1436 36.8188 15.6807 37.0776 16.0957C37.3413 16.5059 37.6562 16.7109 38.0225 16.7109C38.6816 16.7109 39.1113 16.4814 39.3115 16.0225C39.5166 15.5586 39.6191 14.936 39.6191 14.1548C39.6191 13.3735 39.5166 12.7534 39.3115 12.2944C39.1113 11.8306 38.6816 11.5986 38.0225 11.5986C37.6562 11.5986 37.3413 11.8062 37.0776 12.2212C36.8188 12.6313 36.6895 13.166 36.6895 13.8252V14.4844ZM43.8086 20.9297C43.5156 20.9297 43.3691 20.7832 43.3691 20.4902V10.749C43.3691 10.4561 43.5156 10.3096 43.8086 10.3096H44.9658C45.21 10.3096 45.3418 10.4561 45.3613 10.749L45.3906 11.1738H45.4199C45.6738 10.7539 45.957 10.4805 46.2695 10.3535C46.582 10.2266 46.958 10.1631 47.3975 10.1631C48.5449 10.1631 49.3506 10.561 49.8145 11.3569C50.2832 12.1479 50.5176 13.0806 50.5176 14.1548C50.5176 15.229 50.2832 16.1641 49.8145 16.96C49.3506 17.751 48.5449 18.1465 47.3975 18.1465C46.958 18.1465 46.582 18.083 46.2695 17.9561C45.957 17.8291 45.6738 17.5557 45.4199 17.1357H45.3906C45.4102 17.3311 45.4199 17.5264 45.4199 17.7217V20.4902C45.4199 20.7832 45.2734 20.9297 44.9805 20.9297H43.8086ZM45.4199 14.4844C45.4199 15.1436 45.5493 15.6807 45.8081 16.0957C46.0718 16.5059 46.3867 16.7109 46.7529 16.7109C47.4121 16.7109 47.8418 16.4814 48.042 16.0225C48.2471 15.5586 48.3496 14.936 48.3496 14.1548C48.3496 13.3735 48.2471 12.7534 48.042 12.2944C47.8418 11.8306 47.4121 11.5986 46.7529 11.5986C46.3867 11.5986 46.0718 11.8062 45.8081 12.2212C45.5493 12.6313 45.4199 13.166 45.4199 13.8252V14.4844ZM52.5391 18C52.2461 18 52.0996 17.8535 52.0996 17.5605V10.749C52.0996 10.4561 52.2461 10.3096 52.5391 10.3096H53.7109C54.0039 10.3096 54.1504 10.4561 54.1504 10.749V17.5605C54.1504 17.8535 54.0039 18 53.7109 18H52.5391ZM52.5391 9.18164C52.2461 9.18164 52.0996 9.03516 52.0996 8.74219V7.80469C52.0996 7.51172 52.2461 7.36523 52.5391 7.36523H53.7109C54.0039 7.36523 54.1504 7.51172 54.1504 7.80469V8.74219C54.1504 9.03516 54.0039 9.18164 53.7109 9.18164H52.5391ZM56.582 18C56.2891 18 56.1426 17.8535 56.1426 17.5605V10.749C56.1426 10.4561 56.2891 10.3096 56.582 10.3096H57.7393C58.0322 10.3096 58.1787 10.4561 58.1787 10.749V11.1738H58.208C58.4326 10.7881 58.7183 10.5244 59.0649 10.3828C59.4116 10.2363 59.8291 10.1631 60.3174 10.1631C61.0791 10.1631 61.709 10.4023 62.207 10.8809C62.7051 11.3594 62.9541 12.2334 62.9541 13.5029V17.5605C62.9541 17.8535 62.8076 18 62.5146 18H61.3428C61.0498 18 60.9033 17.8535 60.9033 17.5605V14.0303C60.9033 12.9658 60.8301 12.2944 60.6836 12.0161C60.5371 11.7378 60.2222 11.5986 59.7388 11.5986C59.2261 11.5986 58.8403 11.7988 58.5815 12.1992C58.3228 12.5947 58.1934 13.4199 58.1934 14.6748V17.5605C58.1934 17.8535 58.0469 18 57.7539 18H56.582ZM64.5215 14.1548C64.5215 13.0806 64.7534 12.1479 65.2173 11.3569C65.686 10.561 66.4941 10.1631 67.6416 10.1631C68.0811 10.1631 68.457 10.2266 68.7695 10.3535C69.082 10.4805 69.3652 10.7539 69.6191 11.1738H69.6484L69.6777 10.749C69.6973 10.4561 69.8291 10.3096 70.0732 10.3096H71.2305C71.5234 10.3096 71.6699 10.4561 71.6699 10.749V17.9194C71.6699 19.1157 71.3477 19.9409 70.7031 20.395C70.0586 20.8491 69.126 21.0762 67.9053 21.0762C67.3877 21.0762 66.9092 21.0493 66.4697 20.9956C66.0303 20.9419 65.5859 20.8076 65.1367 20.5928C64.9023 20.4805 64.8633 20.2681 65.0195 19.9556L65.2832 19.4282C65.3906 19.2134 65.5688 19.1646 65.8179 19.2817C66.0181 19.3745 66.2646 19.4575 66.5576 19.5308C66.8555 19.604 67.2314 19.6406 67.6855 19.6406C68.3105 19.6406 68.7891 19.5234 69.1211 19.2891C69.4531 19.0596 69.6191 18.5542 69.6191 17.7729V17.6484C69.6191 17.4531 69.6289 17.2578 69.6484 17.0625H69.6191C69.3652 17.4824 69.082 17.7559 68.7695 17.8828C68.457 18.0098 68.0811 18.0732 67.6416 18.0732C66.4941 18.0732 65.686 17.6777 65.2173 16.8867C64.7534 16.0908 64.5215 15.1802 64.5215 14.1548ZM66.6895 14.1548C66.6895 14.8872 66.7896 15.4854 66.9897 15.9492C67.1948 16.4082 67.627 16.6377 68.2861 16.6377C68.6523 16.6377 68.9648 16.4326 69.2236 16.0225C69.4873 15.6074 69.6191 15.0703 69.6191 14.4111V13.8252C69.6191 13.166 69.4873 12.6313 69.2236 12.2212C68.9648 11.8062 68.6523 11.5986 68.2861 11.5986C67.627 11.5986 67.1948 11.8306 66.9897 12.2944C66.7896 12.7534 66.6895 13.3735 66.6895 14.1548ZM79.4775 18C79.1357 18 78.9648 17.8169 78.9648 17.4507V8.04639C78.9648 7.68018 79.1357 7.49707 79.4775 7.49707H80.6641C80.957 7.49707 81.1035 7.68018 81.1035 8.04639V16.1836H85.3735C85.7397 16.1836 85.9229 16.3423 85.9229 16.6597V17.5239C85.9229 17.8413 85.7397 18 85.3735 18H79.4775ZM87.7393 18C87.4463 18 87.2998 17.8535 87.2998 17.5605V10.749C87.2998 10.4561 87.4463 10.3096 87.7393 10.3096H88.9111C89.2041 10.3096 89.3506 10.4561 89.3506 10.749V17.5605C89.3506 17.8535 89.2041 18 88.9111 18H87.7393ZM87.7393 9.18164C87.4463 9.18164 87.2998 9.03516 87.2998 8.74219V7.80469C87.2998 7.51172 87.4463 7.36523 87.7393 7.36523H88.9111C89.2041 7.36523 89.3506 7.51172 89.3506 7.80469V8.74219C89.3506 9.03516 89.2041 9.18164 88.9111 9.18164H87.7393ZM91.189 17.4873C90.9497 17.3164 90.8838 17.1333 90.9912 16.938L91.3647 16.2568C91.4966 16.0127 91.7017 15.9834 91.98 16.1689C92.2583 16.3545 92.5854 16.4912 92.9614 16.5791C93.3423 16.667 93.689 16.7109 94.0015 16.7109C94.2212 16.7109 94.4263 16.689 94.6167 16.645C94.8071 16.6011 94.9683 16.5156 95.1001 16.3887C95.2319 16.2617 95.2979 16.0762 95.2979 15.832C95.2979 15.6855 95.2588 15.561 95.1807 15.4585C95.1025 15.356 95.0024 15.2778 94.8804 15.2241C94.7583 15.1704 94.6289 15.1265 94.4922 15.0923C94.3115 15.0483 94.0503 14.9751 93.7085 14.8726C93.3716 14.77 93.0469 14.6504 92.7344 14.5137C92.4756 14.4014 92.2217 14.2451 91.9727 14.0449C91.7285 13.8398 91.5479 13.6128 91.4307 13.3638C91.3184 13.1147 91.2622 12.8071 91.2622 12.4409C91.2622 11.9478 91.4038 11.5156 91.687 11.1445C91.9751 10.7734 92.3462 10.5171 92.8003 10.3755C93.2544 10.2339 93.8208 10.1631 94.4995 10.1631C94.9585 10.1631 95.4053 10.229 95.8398 10.3608C96.2744 10.4927 96.5845 10.6172 96.77 10.7344C97.063 10.9199 97.1362 11.1177 96.9897 11.3276L96.543 11.9795C96.4062 12.1748 96.1865 12.1895 95.8838 12.0234C95.6543 11.8965 95.4272 11.7939 95.2026 11.7158C94.9829 11.6377 94.7363 11.5986 94.4629 11.5986C94.2773 11.5986 94.0991 11.6182 93.9282 11.6572C93.7573 11.6963 93.6108 11.7695 93.4888 11.877C93.3716 11.9844 93.313 12.126 93.313 12.3018C93.313 12.4873 93.3667 12.6338 93.4741 12.7412C93.5864 12.8438 93.7134 12.9194 93.855 12.9683C94.0015 13.0171 94.1406 13.0635 94.2725 13.1074C94.5459 13.1953 94.8218 13.2808 95.1001 13.3638C95.3784 13.4419 95.6616 13.5371 95.9497 13.6494C96.1987 13.7471 96.4404 13.8862 96.6748 14.0669C96.9092 14.2476 97.0801 14.4771 97.1875 14.7554C97.2949 15.0337 97.3486 15.3511 97.3486 15.7075C97.3486 16.1812 97.207 16.6206 96.9238 17.0259C96.6406 17.4312 96.2671 17.7192 95.8032 17.8901C95.3394 18.061 94.7998 18.1465 94.1846 18.1465C93.4961 18.1465 92.9102 18.0977 92.4268 18C91.9434 17.9023 91.5308 17.7314 91.189 17.4873ZM98.4546 11.7744C98.1665 11.7744 98.0225 11.6523 98.0225 11.4082V10.6758C98.0225 10.4316 98.1665 10.3096 98.4546 10.3096H98.9526V10.0532C98.9526 9.8335 99.0039 9.6333 99.1064 9.45264L99.6704 8.46387C99.7778 8.27832 99.9048 8.18555 100.051 8.18555H100.564C100.857 8.18555 101.003 8.33203 101.003 8.625V10.3096H102.19C102.478 10.3096 102.622 10.4316 102.622 10.6758V11.4082C102.622 11.6523 102.478 11.7744 102.19 11.7744H101.003V15.4072C101.003 15.9053 101.038 16.2642 101.106 16.4839C101.179 16.6987 101.365 16.8062 101.663 16.8062C101.814 16.8062 101.985 16.7817 102.175 16.7329C102.366 16.6792 102.515 16.6279 102.622 16.5791C102.793 16.501 102.905 16.5571 102.959 16.7476L103.179 17.5825C103.223 17.7485 103.159 17.8706 102.988 17.9487C102.827 18.022 102.605 18.0879 102.322 18.1465C102.043 18.21 101.763 18.2417 101.479 18.2417C100.781 18.2417 100.186 18.0977 99.6924 17.8096C99.1992 17.5215 98.9526 16.9282 98.9526 16.0298V11.7744H98.4546Z" fill="white"/>
</svg>
